<svg xmlns="http://www.w3.org/2000/svg" xmlns:xlink="http://www.w3.org/1999/xlink" width="940" zoomAndPan="magnify" viewBox="0 0 705 591.000005" height="788" preserveAspectRatio="xMidYMid meet" version="1.0"><defs><clipPath id="6911b6b19d"><path d="M 0.59375 0 L 704.402344 0 L 704.402344 590 L 0.59375 590 Z M 0.59375 0 " clip-rule="nonzero"/></clipPath><clipPath id="207bc13e63"><path d="M 173.449219 373.8125 L 531.445312 373.8125 L 531.445312 469.679688 L 173.449219 469.679688 Z M 173.449219 373.8125 " clip-rule="nonzero"/></clipPath><clipPath id="894783a10b"><path d="M 173.550781 469.679688 L 173.550781 397.769531 C 203.375 397.769531 203.375 373.8125 233.199219 373.8125 C 263.035156 373.8125 263.035156 397.769531 292.859375 397.769531 C 322.683594 397.769531 322.683594 373.8125 352.507812 373.8125 C 382.332031 373.8125 382.332031 397.769531 412.15625 397.769531 C 441.980469 397.769531 441.980469 373.8125 471.796875 373.8125 C 501.621094 373.8125 501.621094 397.769531 531.445312 397.769531 L 531.445312 469.679688 C 501.621094 469.679688 501.621094 445.722656 471.796875 445.722656 C 441.980469 445.722656 441.980469 469.679688 412.15625 469.679688 C 382.332031 469.679688 382.332031 445.722656 352.507812 445.722656 C 322.683594 445.722656 322.683594 469.679688 292.859375 469.679688 C 263.035156 469.679688 263.035156 445.722656 233.199219 445.722656 C 203.375 445.722656 203.375 469.679688 173.550781 469.679688 Z M 173.550781 469.679688 " clip-rule="nonzero"/></clipPath><clipPath id="53946d8bb4"><path d="M 0.449219 0.8125 L 358.445312 0.8125 L 358.445312 96.679688 L 0.449219 96.679688 Z M 0.449219 0.8125 " clip-rule="nonzero"/></clipPath><clipPath id="d386ab7742"><path d="M 0.550781 96.679688 L 0.550781 24.769531 C 30.375 24.769531 30.375 0.8125 60.199219 0.8125 C 90.035156 0.8125 90.035156 24.769531 119.859375 24.769531 C 149.683594 24.769531 149.683594 0.8125 179.507812 0.8125 C 209.332031 0.8125 209.332031 24.769531 239.15625 24.769531 C 268.980469 24.769531 268.980469 0.8125 298.796875 0.8125 C 328.621094 0.8125 328.621094 24.769531 358.445312 24.769531 L 358.445312 96.679688 C 328.621094 96.679688 328.621094 72.722656 298.796875 72.722656 C 268.980469 72.722656 268.980469 96.679688 239.15625 96.679688 C 209.332031 96.679688 209.332031 72.722656 179.507812 72.722656 C 149.683594 72.722656 149.683594 96.679688 119.859375 96.679688 C 90.035156 96.679688 90.035156 72.722656 60.199219 72.722656 C 30.375 72.722656 30.375 96.679688 0.550781 96.679688 Z M 0.550781 96.679688 " clip-rule="nonzero"/></clipPath><clipPath id="35e8aeef3b"><rect x="0" width="359" y="0" height="97"/></clipPath><clipPath id="85985568fa"><path d="M 173.449219 246.941406 L 531.445312 246.941406 L 531.445312 342.808594 L 173.449219 342.808594 Z M 173.449219 246.941406 " clip-rule="nonzero"/></clipPath><clipPath id="f42d0da710"><path d="M 173.550781 342.808594 L 173.550781 270.898438 C 203.375 270.898438 203.375 246.941406 233.199219 246.941406 C 263.035156 246.941406 263.035156 270.898438 292.859375 270.898438 C 322.683594 270.898438 322.683594 246.941406 352.507812 246.941406 C 382.332031 246.941406 382.332031 270.898438 412.15625 270.898438 C 441.980469 270.898438 441.980469 246.941406 471.796875 246.941406 C 501.621094 246.941406 501.621094 270.898438 531.445312 270.898438 L 531.445312 342.808594 C 501.621094 342.808594 501.621094 318.851562 471.796875 318.851562 C 441.980469 318.851562 441.980469 342.808594 412.15625 342.808594 C 382.332031 342.808594 382.332031 318.851562 352.507812 318.851562 C 322.683594 318.851562 322.683594 342.808594 292.859375 342.808594 C 263.035156 342.808594 263.035156 318.851562 233.199219 318.851562 C 203.375 318.851562 203.375 342.808594 173.550781 342.808594 Z M 173.550781 342.808594 " clip-rule="nonzero"/></clipPath><clipPath id="1b1cb24f7b"><path d="M 0.449219 0.941406 L 358.445312 0.941406 L 358.445312 96.808594 L 0.449219 96.808594 Z M 0.449219 0.941406 " clip-rule="nonzero"/></clipPath><clipPath id="e6191c7bc7"><path d="M 0.550781 96.808594 L 0.550781 24.898438 C 30.375 24.898438 30.375 0.941406 60.199219 0.941406 C 90.035156 0.941406 90.035156 24.898438 119.859375 24.898438 C 149.683594 24.898438 149.683594 0.941406 179.507812 0.941406 C 209.332031 0.941406 209.332031 24.898438 239.15625 24.898438 C 268.980469 24.898438 268.980469 0.941406 298.796875 0.941406 C 328.621094 0.941406 328.621094 24.898438 358.445312 24.898438 L 358.445312 96.808594 C 328.621094 96.808594 328.621094 72.851562 298.796875 72.851562 C 268.980469 72.851562 268.980469 96.808594 239.15625 96.808594 C 209.332031 96.808594 209.332031 72.851562 179.507812 72.851562 C 149.683594 72.851562 149.683594 96.808594 119.859375 96.808594 C 90.035156 96.808594 90.035156 72.851562 60.199219 72.851562 C 30.375 72.851562 30.375 96.808594 0.550781 96.808594 Z M 0.550781 96.808594 " clip-rule="nonzero"/></clipPath><clipPath id="3e185e1863"><rect x="0" width="359" y="0" height="97"/></clipPath><clipPath id="e9d5bd5d7b"><path d="M 173.449219 120.316406 L 531.445312 120.316406 L 531.445312 216.179688 L 173.449219 216.179688 Z M 173.449219 120.316406 " clip-rule="nonzero"/></clipPath><clipPath id="854b7f2ccf"><path d="M 173.550781 216.179688 L 173.550781 144.273438 C 203.375 144.273438 203.375 120.316406 233.199219 120.316406 C 263.035156 120.316406 263.035156 144.273438 292.859375 144.273438 C 322.683594 144.273438 322.683594 120.316406 352.507812 120.316406 C 382.332031 120.316406 382.332031 144.273438 412.15625 144.273438 C 441.980469 144.273438 441.980469 120.316406 471.796875 120.316406 C 501.621094 120.316406 501.621094 144.273438 531.445312 144.273438 L 531.445312 216.179688 C 501.621094 216.179688 501.621094 192.222656 471.796875 192.222656 C 441.980469 192.222656 441.980469 216.179688 412.15625 216.179688 C 382.332031 216.179688 382.332031 192.222656 352.507812 192.222656 C 322.683594 192.222656 322.683594 216.179688 292.859375 216.179688 C 263.035156 216.179688 263.035156 192.222656 233.199219 192.222656 C 203.375 192.222656 203.375 216.179688 173.550781 216.179688 Z M 173.550781 216.179688 " clip-rule="nonzero"/></clipPath><clipPath id="d151122ac9"><path d="M 0.449219 0.316406 L 358.445312 0.316406 L 358.445312 96.179688 L 0.449219 96.179688 Z M 0.449219 0.316406 " clip-rule="nonzero"/></clipPath><clipPath id="aacd65b2eb"><path d="M 0.550781 96.179688 L 0.550781 24.273438 C 30.375 24.273438 30.375 0.316406 60.199219 0.316406 C 90.035156 0.316406 90.035156 24.273438 119.859375 24.273438 C 149.683594 24.273438 149.683594 0.316406 179.507812 0.316406 C 209.332031 0.316406 209.332031 24.273438 239.15625 24.273438 C 268.980469 24.273438 268.980469 0.316406 298.796875 0.316406 C 328.621094 0.316406 328.621094 24.273438 358.445312 24.273438 L 358.445312 96.179688 C 328.621094 96.179688 328.621094 72.222656 298.796875 72.222656 C 268.980469 72.222656 268.980469 96.179688 239.15625 96.179688 C 209.332031 96.179688 209.332031 72.222656 179.507812 72.222656 C 149.683594 72.222656 149.683594 96.179688 119.859375 96.179688 C 90.035156 96.179688 90.035156 72.222656 60.199219 72.222656 C 30.375 72.222656 30.375 96.179688 0.550781 96.179688 Z M 0.550781 96.179688 " clip-rule="nonzero"/></clipPath><clipPath id="8f6f3fe434"><rect x="0" width="359" y="0" height="97"/></clipPath></defs><g clip-path="url(#6911b6b19d)"><path fill="#ffffff" d="M 0.59375 0 L 704.40625 0 L 704.40625 590 L 0.59375 590 Z M 0.59375 0 " fill-opacity="1" fill-rule="nonzero"/><path fill="#000000" d="M 0.59375 0 L 704.40625 0 L 704.40625 590 L 0.59375 590 Z M 0.59375 0 " fill-opacity="1" fill-rule="nonzero"/></g><g clip-path="url(#207bc13e63)"><g clip-path="url(#894783a10b)"><g transform="matrix(1, 0, 0, 1, 173, 373)"><g clip-path="url(#35e8aeef3b)"><g clip-path="url(#53946d8bb4)"><g clip-path="url(#d386ab7742)"><path fill="#ffffff" d="M 358.445312 96.679688 L 0.449219 96.679688 L 0.449219 0.8125 L 358.445312 0.8125 Z M 358.445312 96.679688 " fill-opacity="1" fill-rule="nonzero"/></g></g></g></g></g></g><g clip-path="url(#85985568fa)"><g clip-path="url(#f42d0da710)"><g transform="matrix(1, 0, 0, 1, 173, 246)"><g clip-path="url(#3e185e1863)"><g clip-path="url(#1b1cb24f7b)"><g clip-path="url(#e6191c7bc7)"><path fill="#ffffff" d="M 358.445312 96.808594 L 0.449219 96.808594 L 0.449219 0.941406 L 358.445312 0.941406 Z M 358.445312 96.808594 " fill-opacity="1" fill-rule="nonzero"/></g></g></g></g></g></g><g clip-path="url(#e9d5bd5d7b)"><g clip-path="url(#854b7f2ccf)"><g transform="matrix(1, 0, 0, 1, 173, 120)"><g clip-path="url(#8f6f3fe434)"><g clip-path="url(#d151122ac9)"><g clip-path="url(#aacd65b2eb)"><path fill="#ffffff" d="M 358.445312 96.179688 L 0.449219 96.179688 L 0.449219 0.316406 L 358.445312 0.316406 Z M 358.445312 96.179688 " fill-opacity="1" fill-rule="nonzero"/></g></g></g></g></g></g></svg>